<?xml version="1.0" encoding="UTF-8"?>
<svg width="22px" height="22px" viewBox="0 0 22 22" version="1.1" xmlns="http://www.w3.org/2000/svg" xmlns:xlink="http://www.w3.org/1999/xlink">
    <!-- Generator: Sketch 49.3 (51167) - http://www.bohemiancoding.com/sketch -->
    <title>Shape Copy 2</title>
    <desc>Created with Sketch.</desc>
    <defs></defs>
    <g id="Page-1" stroke="none" stroke-width="1" fill="none" fill-rule="evenodd">
        <path d="M13.0872294,8.50866538 L13.1491834,1.84345293 C13.1491834,1.44075225 13.3866735,1.32717001 13.6654663,1.63693976 L15.6944581,3.70207143 L19.3652297,0.088091013 C19.4839224,-0.029363671 19.6750517,-0.029363671 19.7937445,0.088091013 L21.9105044,2.2461536 C22.0279591,2.36484638 22.0279591,2.55597564 21.9105044,2.67466842 L18.2397329,6.28864884 L20.2687248,8.3537805 C20.5475175,8.64289893 20.4494238,8.87006342 20.0518859,8.87006342 L13.3866735,8.82359796 C13.3049648,8.82226021 13.2272203,8.78814725 13.1709104,8.72892479 C13.1146005,8.66970233 13.0844483,8.5903377 13.0872294,8.50866538 Z M13.0870528,13.3658455 L13.1490067,20.031058 C13.1490067,20.4337586 13.3864968,20.5473409 13.6652896,20.2375711 L15.6942815,18.1724395 L19.365053,21.7864199 C19.4837458,21.9038746 19.6748751,21.9038746 19.7935678,21.7864199 L21.9103278,19.6283573 C22.0277825,19.5096645 22.0277825,19.3185353 21.9103278,19.1998425 L18.2395563,15.5858621 L20.2685481,13.5207304 C20.5473409,13.231612 20.4492471,13.0044475 20.0517093,13.0044475 L13.3864968,13.0664014 C13.2222755,13.069162 13.0898134,13.2016242 13.0870528,13.3658455 Z M8.8494121,1.84345293 C8.8494121,1.44075225 8.61192196,1.32717001 8.33312918,1.63693976 L6.30413732,3.70207143 L2.63336579,0.088091013 C2.51467301,-0.029363671 2.32354375,-0.029363671 2.20485097,0.088091013 L0.088091013,2.2461536 C-0.029363671,2.36484638 -0.029363671,2.55597564 0.088091013,2.67466842 L3.75886255,6.28864884 L1.72987069,8.3537805 C1.45107791,8.64289893 1.54917167,8.87006342 1.94670951,8.87006342 L8.61192196,8.80810947 C8.77614329,8.80534886 8.90860545,8.67288671 8.91136605,8.50866538 L8.8494121,1.84345293 Z M8.61192196,13.0818899 L1.94670951,13.019936 C1.54400884,13.019936 1.4304266,13.2471005 1.72987069,13.5362189 L3.75886255,15.6013506 L0.088091013,19.215331 C-0.029363671,19.3340237 -0.029363671,19.525153 0.088091013,19.6438458 L2.20485097,21.8019084 C2.32354375,21.9193631 2.51467301,21.9193631 2.63336579,21.8019084 L6.30413732,18.187928 L8.33312918,20.2530596 C8.61192196,20.5421781 8.8494121,20.4440843 8.8494121,20.0465465 L8.91136605,13.381334 C8.90860545,13.2171127 8.77614329,13.0846505 8.61192196,13.0818899 Z" id="Shape-Copy-2" fill="#008ab3" fill-rule="nonzero"></path>
    </g>
</svg>
