<?xml version="1.0" encoding="UTF-8"?>
<svg width="9px" height="12px" viewBox="0 0 9 12" version="1.1" xmlns="http://www.w3.org/2000/svg" xmlns:xlink="http://www.w3.org/1999/xlink">
    <!-- Generator: Sketch 48.2 (47327) - http://www.bohemiancoding.com/sketch -->
    <title>icon-sort-down</title>
    <desc>Created with Sketch.</desc>
    <defs></defs>
    <g id="Page-1" stroke="none" stroke-width="1" fill="none" fill-rule="evenodd">
        <g id="icon-sort-down">
            <path d="M7.62888806,6.62501043 C7.81117943,6.62501043 7.9661267,6.68881222 8.0937307,6.81641622 C8.2213347,6.94402023 8.2851365,7.0989675 8.2851365,7.28125887 C8.2851365,7.46355024 8.2213347,7.61849751 8.0937307,7.74610151 L4.83983221,11 C4.71222821,11.127604 4.55728094,11.1914058 4.37498957,11.1914058 C4.1926982,11.1914058 4.03775093,11.127604 3.91014693,11 L0.656248435,7.74610151 C0.528644434,7.61849751 0.464842642,7.46355024 0.464842642,7.28125887 C0.464842642,7.0989675 0.528644434,6.94402023 0.656248435,6.81641622 C0.783852437,6.68881222 0.938799706,6.62501043 1.12109108,6.62501043 L7.62888806,6.62501043 Z" id="" fill="#226699"></path>
            <path d="M8.0937307,3.75392353 C8.2213347,3.88152753 8.2851365,4.0364748 8.2851365,4.21876617 C8.2851365,4.40105754 8.2213347,4.55600481 8.0937307,4.68360881 C7.9661267,4.81121281 7.81117943,4.8750146 7.62888806,4.8750146 L1.12109108,4.8750146 C0.938799706,4.8750146 0.783852437,4.81121281 0.656248435,4.68360881 C0.528644434,4.55600481 0.464842642,4.40105754 0.464842642,4.21876617 C0.464842642,4.0364748 0.528644434,3.88152753 0.656248435,3.75392353 L3.91014693,0.500025034 C4.03775093,0.372421032 4.1926982,0.30861924 4.37498957,0.30861924 C4.55728094,0.30861924 4.71222821,0.372421032 4.83983221,0.500025034 L8.0937307,3.75392353 Z" id="Path" fill="#CCCCCC"></path>
        </g>
    </g>
</svg>