<?xml version="1.0" encoding="UTF-8"?>
<svg width="23px" height="23px" viewBox="0 0 23 23" version="1.1" xmlns="http://www.w3.org/2000/svg" xmlns:xlink="http://www.w3.org/1999/xlink">
    <!-- Generator: Sketch 49.3 (51167) - http://www.bohemiancoding.com/sketch -->
    <title>Shape</title>
    <desc>Created with Sketch.</desc>
    <defs></defs>
    <g id="Page-1" stroke="none" stroke-width="1" fill="none" fill-rule="evenodd">
        <path d="M22.9984188,0.361398041 L22.9364649,7.02661049 C22.9364649,7.42931116 22.6989747,7.54289341 22.4201819,7.23312366 L20.3911901,5.16799199 L16.7204185,8.7819724 C16.6017258,8.89942709 16.4105965,8.89942709 16.2919037,8.7819724 L14.1751438,6.62390981 C14.0576891,6.50521704 14.0576891,6.31408777 14.1751438,6.19539499 L17.8459153,2.58141458 L15.8169234,0.516282916 C15.5381307,0.227164483 15.6362244,0 16.0337623,0 L22.6989747,0.0464654625 C22.7806834,0.047803204 22.8584279,0.0819161653 22.9147378,0.141138626 C22.9710477,0.200361087 23.0011999,0.27972572 22.9984188,0.361398041 Z M22.9984188,22.5131129 L22.9364649,15.8479004 C22.9364649,15.4451997 22.6989747,15.3316175 22.4201819,15.6413872 L20.3911901,17.7065189 L16.7204185,14.0925385 C16.6017258,13.9750838 16.4105965,13.9750838 16.2919037,14.0925385 L14.1751438,16.2506011 C14.0576891,16.3692939 14.0576891,16.5604231 14.1751438,16.6791159 L17.8459153,20.2930963 L15.8169234,22.358228 C15.5381307,22.6473464 15.6362244,22.8745109 16.0337623,22.8745109 L22.6989747,22.812557 C22.863196,22.8097963 22.9956582,22.6773342 22.9984188,22.5131129 Z M0.0619539499,7.02661049 C0.0619539499,7.42931116 0.299444091,7.54289341 0.578236866,7.23312366 L2.60722873,5.16799199 L6.27800026,8.7819724 C6.39669304,8.89942709 6.5878223,8.89942709 6.70651508,8.7819724 L8.82327504,6.62390981 C8.94072972,6.50521704 8.94072972,6.31408777 8.82327504,6.19539499 L5.1525035,2.58141458 L7.18149536,0.516282916 C7.46028814,0.227164483 7.36219438,0 6.96465654,0 L0.299444091,0.0619539499 C0.135222757,0.064714554 0.00276060409,0.197176707 2.93472861e-14,0.361398041 L0.0619539499,7.02661049 Z M0.299444091,22.8280454 L6.96465654,22.8899994 C7.36735721,22.8899994 7.48093946,22.6628349 7.18149536,22.3737165 L5.1525035,20.3085848 L8.82327504,16.6946044 C8.94072972,16.5759116 8.94072972,16.3847824 8.82327504,16.2660896 L6.70651508,14.108027 C6.5878223,13.9905723 6.39669304,13.9905723 6.27800026,14.108027 L2.60722873,17.7220074 L0.578236866,15.6568757 C0.299444091,15.3677573 0.0619539499,15.4658511 0.0619539499,15.8633889 L1.13686838e-13,22.5286013 C0.00276060409,22.6928227 0.135222757,22.8252848 0.299444091,22.8280454 Z" id="Shape" fill="#008ab3" fill-rule="nonzero"></path>
    </g>
</svg>
